<svg xmlns="http://www.w3.org/2000/svg" viewBox="0 0 256 256" fill="currentColor">
  <path d="M123.1 11.2c-3.6 1.9-85.8 88-86.7 90.7-1.9 5.6.7 11.6 5.8 14.1 2.9 1.3 3.2 1.3 19.1 1.3h16.1v24.8c0 15.6.2 25.7.6 27 .7 2.8 3.5 5.9 6.4 7.2 2.1 1 4.8 1.1 43.4 1.1 45.4 0 43.4.2 47.2-3.5 3.3-3.2 3.5-4.6 3.5-32v-24.6h16.2c15.8 0 16.2-.1 19.1-1.3 3.9-1.9 5.9-4.9 6.2-9.3.2-2.3-.1-3.8-.7-5.3-1.1-2.2-81.5-86.7-85-89.3-3.5-2.6-8.3-3-11.6-1.1zm32 54.9L181.8 94l-8.7.3c-7 .2-9.2.5-10.8 1.3-2.8 1.3-5.3 4.3-6 6.9-.4 1.3-.6 11.4-.6 27v24.9h-27.5h-27.5v-24.8c0-26.6-.1-27.7-2.9-31-2.8-3.4-4.8-4-14.6-4.3L74.3 94 101 66c14.7-15.3 26.9-27.9 27.1-27.8.3.1 12.4 12.7 27 27.9z"/>
  <path d="M84.5 185.2c-2.9 1.3-5.7 4.4-6.4 7.2-.4 1.3-.6 10.2-.6 23.2 0 23.3.1 23.7 3.7 27.1 3.6 3.4 2 3.3 46.9 3.3 44.9 0 43.3.1 46.9-3.3 3.7-3.4 3.7-3.8 3.7-27.1 0-17.8-.1-21.5-.9-23.7-1.1-3.1-4.3-6.2-7.4-7.1-1.4-.4-15.9-.6-42.9-.6-38.2 0-40.9.1-43 1zm71.1 29.9v7.9h-27.5h-27.5v-7.9-7.9H128h27.5z"/>
</svg>
